Coordinates
version=1
nRows=60
nColumns=12
inDegrees=yes

Units are S.I. units (second, meters, Newtons, ...)
Angles are in degrees

endheader
time	SC_y	SC_z	SC_x	AC_y	AC_z	AC_x	GH_y	GH_z	GH_yy	EL_x	PS_y
       0.0               -49.5          21.05          2.541          68.22         -0.539          14.08         -41.84          60.31         -48.83          107.2          111.5
   0.01427              -49.49          21.05          2.551          68.22        -0.5404          14.08         -41.85          60.31         -48.83          107.2          111.5
   0.02853              -49.49          21.05          2.562          68.22         -0.542          14.08         -41.86           60.3         -48.82          107.2          111.5
    0.0428              -49.48          21.05          2.573          68.22        -0.5437          14.07         -41.88          60.29         -48.81          107.2          111.5
   0.05707              -49.48          21.05          2.585          68.22        -0.5455          14.07         -41.89          60.29         -48.81          107.2          111.5
   0.07134              -49.47          21.05          2.598          68.22        -0.5474          14.07          -41.9          60.28          -48.8          107.2          111.5
    0.0856              -49.46          21.05          2.612          68.21        -0.5494          14.07         -41.92          60.27         -48.79          107.2          111.5
   0.09987              -49.46          21.04          2.627          68.21        -0.5516          14.06         -41.93          60.26         -48.79          107.2          111.5
    0.1141              -49.45          21.04          2.642          68.21        -0.5539          14.06         -41.95          60.25         -48.78          107.2          111.5
    0.1284              -49.44          21.04          2.659          68.21        -0.5564          14.05         -41.96          60.25         -48.77          107.3          111.5
    0.1427              -49.43          21.04          2.677          68.21         -0.559          14.05         -41.98          60.24         -48.76          107.3          111.5
    0.1569              -49.42          21.04          2.697          68.21        -0.5619          14.05          -42.0          60.22         -48.75          107.3          111.5
    0.1712              -49.41          21.04          2.718           68.2         -0.565          14.04         -42.02          60.21         -48.74          107.3          111.4
    0.1855               -49.4          21.04          2.741           68.2        -0.5684          14.04         -42.05           60.2         -48.73          107.3          111.4
    0.1997              -49.39          21.04          2.765           68.2         -0.572          14.03         -42.07          60.19         -48.71          107.3          111.4
     0.214              -49.38          21.04          2.792           68.2        -0.5759          14.03          -42.1          60.17          -48.7          107.3          111.4
    0.2283              -49.36          21.04          2.821          68.19        -0.5802          14.02         -42.13          60.16         -48.68          107.3          111.4
    0.2425              -49.35          21.04          2.852          68.19        -0.5849          14.01         -42.16          60.14         -48.67          107.3          111.4
    0.2568              -49.33          21.03          2.887          68.18          -0.59          14.01          -42.2          60.12         -48.65          107.3          111.4
    0.2711              -49.31          21.03          2.925          68.18        -0.5955           14.0         -42.24           60.1         -48.63          107.3          111.4
    0.2853              -49.29          21.03          2.966          68.18        -0.6016          13.99         -42.28          60.07         -48.61          107.3          111.4
    0.2996              -49.27          21.03          3.012          68.17        -0.6084          13.98         -42.33          60.05         -48.58          107.3          111.4
    0.3139              -49.25          21.03          3.062          68.17        -0.6158          13.97         -42.38          60.02         -48.55          107.3          111.4
    0.3281              -49.22          21.02          3.118          68.16        -0.6241          13.96         -42.44          59.99         -48.52          107.3          111.4
    0.3424              -49.19          21.02           3.18          68.15        -0.6332          13.94          -42.5          59.96         -48.49          107.3          111.3
    0.3567              -49.16          21.02          3.249          68.15        -0.6434          13.93         -42.57          59.92         -48.45          107.3          111.3
    0.3709              -49.12          21.01          3.327          68.14        -0.6549          13.91         -42.65          59.87         -48.41          107.4          111.3
    0.3852              -49.08          21.01          3.414          68.13        -0.6678          13.89         -42.74          59.83         -48.37          107.4          111.3
    0.3995              -49.03          21.01          3.513          68.12        -0.6823          13.87         -42.84          59.77         -48.31          107.4          111.3
    0.4137              -48.97           21.0          3.625          68.11        -0.6988          13.85         -42.96          59.71         -48.25          107.4          111.3
     0.428              -48.91           21.0          3.752          68.09        -0.7177          13.82         -43.09          59.64         -48.19          107.4          111.2
    0.4423              -48.84          20.99          3.899          68.08        -0.7393          13.79         -43.24          59.56         -48.11          107.5          111.2
    0.4565              -48.76          20.98          4.068          68.06        -0.7643          13.76         -43.41          59.46         -48.02          107.5          111.2
    0.4708              -48.66          20.97          4.265          68.04        -0.7933          13.71         -43.62          59.35         -47.91          107.5          111.1
    0.4851              -48.55          20.96          4.495          68.01        -0.8273          13.67         -43.85          59.22         -47.79          107.6          111.1
    0.4994              -48.42          20.95          4.766          67.99        -0.8673          13.61         -44.13          59.07         -47.64          107.6          111.0
    0.5136              -48.26          20.94          5.089          67.95        -0.9149          13.54         -44.46          58.89         -47.47          107.6          110.9
    0.5279              -48.08          20.92          5.475          67.91        -0.9719          13.46         -44.86          58.68         -47.26          107.7          110.9
    0.5422              -47.85           20.9          5.943          67.86         -1.041          13.36         -45.34          58.42         -47.02          107.8          110.8
    0.5564              -47.57          20.88          6.514           67.8         -1.125          13.24         -45.93           58.1         -46.71          107.9          110.6
    0.5707              -47.23          20.85          7.219          67.73         -1.229          13.09         -46.65          57.71         -46.33          108.0          110.5
     0.585               -46.8          20.81          8.098          67.63         -1.359           12.9         -47.56          57.22         -45.86          108.1          110.3
    0.5992              -46.27          20.76          9.206          67.52         -1.522          12.66          -48.7           56.6         -45.27          108.3          110.0
    0.6135              -45.58           20.7          10.61          67.37          -1.73          12.37         -50.15          55.82         -44.52          108.6          109.7
    0.6278              -44.71          20.62          12.42          67.17         -1.996          11.98          -52.0          54.82         -43.56          108.8          109.4
     0.642              -43.59          20.52          14.73          66.93         -2.337          11.49         -54.38          53.53         -42.32          109.2          108.9
    0.6563              -42.16          20.39          17.68          66.62         -2.773          10.87         -57.41          51.89         -40.75          109.7          108.2
    0.6706              -40.35          20.23           21.4          66.22         -3.321          10.08         -61.23          49.82         -38.76          110.3          107.4
    0.6848              -38.16          20.03          25.92          65.74         -3.989          9.116         -65.89          47.31         -36.35          111.1          106.4
    0.6991              -35.61          19.81          31.17          65.19         -4.763          8.002         -71.29          44.39         -33.54          111.9          105.3
    0.7134              -32.86          19.56          36.85          64.59         -5.602          6.796         -77.13          41.23         -30.51          112.8          104.1
    0.7276               -30.1          19.31          42.53          63.98          -6.44          5.589         -82.97          38.07         -27.48          113.8          102.9
    0.7419              -27.56          19.09          47.78          63.43         -7.214          4.475         -88.37          35.15         -24.67          114.6          101.7
    0.7562              -25.36          18.89           52.3          62.95         -7.882          3.514         -93.02          32.64         -22.26          115.4          100.7
    0.7704              -23.56          18.73          56.02          62.55          -8.43          2.726         -96.84          30.57         -20.27          116.0          99.94
    0.7847              -22.13           18.6          58.97          62.24         -8.866          2.099         -99.88          28.93          -18.7          116.5           99.3
     0.799              -21.01           18.5          61.28           62.0         -9.207          1.608         -102.3          27.64         -17.46          116.8           98.8
    0.8132              -20.13          18.42          63.08           61.8         -9.473          1.225         -104.1          26.64          -16.5          117.1          98.41
    0.8275              -19.45          18.36          64.49          61.66         -9.681         0.9262         -105.6          25.86         -15.75          117.4          98.11
    0.8418              -18.91          18.31           65.6          61.54         -9.844          0.691         -106.7          25.24         -15.16          117.5          97.87
